<?xml version="1.0" encoding="UTF-8" standalone="no"?> <svg xmlns:inkscape="http://www.inkscape.org/namespaces/inkscape" xmlns:sodipodi="http://sodipodi.sourceforge.net/DTD/sodipodi-0.dtd" xmlns="http://www.w3.org/2000/svg" xmlns:svg="http://www.w3.org/2000/svg" version="1.1" id="svg2" width="193.33333" height="80" viewBox="0 0 193.33333 80" sodipodi:docname="Eduport Logo.ai"><defs id="defs6"><clipPath id="clipPath16"><path d="M 0,60 H 145 V 0 H 0 Z" id="path14"></path></clipPath></defs><g id="g8" inkscape:groupmode="layer" inkscape:label="Eduport Logo" transform="matrix(1.3333333,0,0,-1.3333333,0,80)"><g id="g10"><g id="g12" clip-path="url(#clipPath16)"><g id="g18" transform="translate(73.8153,38.289)"><path d="M 0,0 V 0.456 H -3.509 C -3.519,0.331 -3.532,0.229 -3.532,0.124 -3.557,-3.082 -3.56,-6.292 -3.627,-9.499 c -0.013,-0.631 -0.176,-1.294 -0.434,-1.871 -0.641,-1.428 -1.67,-2.451 -3.165,-3.079 -0.653,-0.274 -1.316,-0.456 -1.976,-0.548 -1.122,-0.156 -2.187,0.233 -3.181,0.749 -0.746,0.386 -1.368,0.94 -1.871,1.616 -0.714,0.959 -1.186,2.04 -1.205,3.226 -0.042,3.146 -0.003,6.292 0,9.438 0.003,0.131 0,0.261 0,0.421 h -3.519 c -0.007,-0.118 -0.013,-0.198 -0.013,-0.278 0,-3.146 -0.009,-6.292 0.006,-9.438 0.004,-0.545 0.067,-1.096 0.163,-1.632 0.437,-2.432 1.728,-4.37 3.675,-5.82 1.543,-1.148 3.312,-1.772 5.279,-1.83 1.651,-0.044 3.209,0.265 4.66,1.036 3.401,1.808 5.087,4.715 5.192,8.511 C 0.07,-6.002 0,-2.999 0,0 m 33.618,-14.946 c -2.76,0.14 -5.607,2.642 -5.508,6.005 -0.159,3 2.639,6.075 6.254,5.881 2.907,-0.159 5.741,-2.579 5.613,-6.104 -0.105,-2.987 -2.508,-5.973 -6.359,-5.782 m 7.156,12.613 c -1.724,1.711 -3.857,2.664 -6.292,2.757 -5.836,0.217 -9.801,-4.329 -9.958,-9.113 -0.181,-5.553 4.348,-9.945 9.48,-9.856 2.607,0.032 4.848,0.925 6.722,2.777 1.878,1.855 2.796,4.137 2.812,6.709 0.012,2.576 -0.915,4.89 -2.764,6.726 m -95.748,-1.122 c 3.079,1.08 6.652,-0.692 7.545,-3.79 -0.032,-0.016 -0.064,-0.042 -0.096,-0.042 -3.688,0.004 -7.376,0.004 -11.064,0.007 -0.028,0.022 -0.057,0.041 -0.083,0.064 0.603,1.874 1.862,3.117 3.698,3.761 m 11.248,-7.357 c 0.985,6.305 -3.404,10.78 -8.43,11.233 -4.887,0.443 -9.821,-2.818 -10.392,-8.791 -0.417,-4.367 2.557,-9.343 8.368,-10.136 2.412,-0.329 4.676,0.312 6.674,1.746 1.272,0.912 2.27,2.059 2.98,3.532 -1.444,0 -2.808,0.006 -4.172,-0.01 -0.124,0 -0.258,-0.108 -0.367,-0.197 -1.383,-1.125 -2.923,-1.753 -4.739,-1.511 -1.859,0.245 -3.287,1.179 -4.291,2.748 -0.255,0.398 -0.436,0.841 -0.653,1.265 0.045,0.041 0.086,0.083 0.127,0.121 z m 12.288,-4.191 c -3.337,0.114 -5.594,2.677 -5.785,5.555 -0.246,3.72 2.875,6.503 5.96,6.296 3.226,0.149 5.751,-2.732 5.913,-5.445 0.23,-3.907 -2.862,-6.518 -6.088,-6.406 m 9.668,24.527 v 0.43 h -3.561 V -1.524 c -0.162,0.074 -0.255,0.096 -0.325,0.147 -1.087,0.813 -2.301,1.339 -3.627,1.622 -1.24,0.265 -2.509,0.319 -3.73,0.077 -1.874,-0.367 -3.576,-1.148 -4.931,-2.579 -2.036,-2.158 -3.066,-4.66 -2.805,-7.662 0.115,-1.345 0.51,-2.582 1.164,-3.755 0.746,-1.345 1.756,-2.464 3.028,-3.299 1.718,-1.129 3.608,-1.69 5.699,-1.572 1.355,0.077 2.623,0.386 3.819,1.014 3.41,1.785 5.192,4.654 5.246,8.45 0.09,6.203 0.023,12.406 0.023,18.605 m 34.635,-24.48 c -1.942,-0.184 -3.589,0.421 -4.922,1.82 -1.096,1.158 -1.676,2.576 -1.66,4.176 0.031,3.111 2.62,5.932 6.005,5.808 3.41,0.047 5.909,-2.665 5.925,-5.884 0.019,-3.347 -2.543,-5.655 -5.348,-5.92 m 8.698,7.666 c -0.169,1.345 -0.717,2.569 -1.488,3.666 -0.985,1.399 -2.26,2.483 -3.848,3.187 C 14.602,0.284 12.928,0.577 11.156,0.36 10.05,0.226 9.008,-0.067 8.007,-0.567 6.509,-1.316 5.294,-2.371 4.357,-3.755 3.382,-5.196 2.818,-6.78 2.776,-8.52 c -0.038,-1.591 -0.003,-3.188 -0.003,-4.781 0,-3.969 0.003,-7.94 0,-11.909 -0.003,-0.248 0.022,-0.43 0.274,-0.589 0.638,-0.408 1.247,-0.867 1.871,-1.294 0.421,-0.29 0.851,-0.561 1.275,-0.842 0.038,-0.025 0.074,-0.048 0.112,-0.073 0.009,0.028 0.019,0.054 0.028,0.079 v 11.345 c 0.555,-0.329 1.075,-0.651 1.61,-0.944 0.995,-0.545 2.075,-0.902 3.191,-0.978 0.972,-0.067 1.97,0.016 2.942,0.153 1.743,0.248 3.232,1.087 4.532,2.25 0.807,0.717 1.454,1.565 1.983,2.512 0.653,1.163 1.033,2.406 1.122,3.716 0.057,0.854 -0.041,1.728 -0.15,2.585 m 33.006,7.637 c -0.8,-0.172 -1.632,-0.286 -2.374,-0.602 -1.32,-0.561 -2.538,-1.329 -3.449,-2.473 -0.513,-0.644 -1.036,-1.298 -1.415,-2.021 -0.705,-1.345 -1.033,-2.789 -1.011,-4.332 0.042,-3.028 0.013,-6.053 0.013,-9.081 v -0.36 h 3.528 c 0.023,0.022 0.042,0.047 0.064,0.07 0.003,3.108 0.026,6.212 0.003,9.317 -0.009,1.106 0.198,2.139 0.756,3.082 0.688,1.157 1.645,2.04 2.926,2.493 0.714,0.251 1.473,0.388 2.202,0.573 V 0.469 C 55.376,0.43 54.965,0.43 54.569,0.347" style="fill:#ffffff;fill-opacity:1;fill-rule:nonzero;stroke:none" id="path20"></path></g><g id="g22" transform="translate(14.4281,49.7192)"><path d="m 0,0 c 0.438,-0.08 0.873,-0.182 1.314,-0.235 1.218,-0.145 2.438,-0.275 3.658,-0.399 0.869,-0.089 1.741,-0.147 2.609,-0.241 0.854,-0.092 1.705,-0.221 2.558,-0.316 0.598,-0.066 1.2,-0.088 1.798,-0.155 0.852,-0.096 1.7,-0.221 2.551,-0.322 0.557,-0.066 1.116,-0.113 1.674,-0.164 0.677,-0.062 1.353,-0.12 2.126,-0.189 C 17.77,-2.323 17.324,-2.588 16.873,-2.845 15.39,-3.693 13.906,-4.538 12.422,-5.384 11.814,-5.73 11.211,-6.084 10.595,-6.414 10.48,-6.476 10.299,-6.489 10.173,-6.45 9.039,-6.094 7.895,-6.007 6.706,-6.12 5.323,-6.253 4.013,-6.633 2.711,-7.13 c 0.158,0.013 0.316,0.033 0.474,0.04 1.247,0.055 2.499,0.197 3.741,0.135 1.007,-0.051 2.001,-0.343 3,-0.538 0.071,-0.014 0.162,-0.099 0.185,-0.171 0.356,-1.09 0.702,-2.183 1.073,-3.344 -2.689,1.69 -5.509,2.102 -8.459,1.112 -2.967,-0.996 -4.967,-3.061 -6.178,-6.028 -0.179,0.527 -0.328,0.965 -0.478,1.403 -0.148,0.433 -0.304,0.864 -0.446,1.3 -0.26,0.802 -0.257,0.808 -1.08,0.789 -0.923,-0.021 -1.846,-0.045 -2.769,-0.083 -0.297,-0.012 -0.593,-0.069 -0.93,-0.111 -0.029,-0.955 -0.059,-1.94 -0.087,-2.925 -0.027,-0.962 -0.054,-1.925 -0.074,-2.888 -0.002,-0.095 0.006,-0.219 0.063,-0.282 0.598,-0.668 0.589,-1.201 -0.047,-1.864 0.385,-0.586 0.768,-1.174 1.157,-1.758 0.146,-0.22 0.091,-0.373 -0.109,-0.526 -1.232,-0.941 -2.567,-0.655 -3.682,0.344 0.444,0.666 0.888,1.334 1.331,2 -0.705,0.66 -0.529,1.555 0.185,1.943 0.062,0.033 0.129,0.119 0.134,0.184 0.036,0.511 0.076,1.022 0.081,1.534 0.012,1.115 -0.002,2.23 0.008,3.346 0.003,0.295 0.059,0.591 0.093,0.912 -1.417,-0.059 -2.798,-0.116 -4.179,-0.173 l -0.021,0.093 c 1.128,1.027 2.258,2.052 3.385,3.08 0.369,0.337 0.734,0.68 1.098,1.022 0.932,0.874 1.859,1.753 2.793,2.624 1.078,1.004 2.16,2.003 3.242,3.003 1.022,0.943 2.046,1.885 3.067,2.829 0.036,0.033 0.054,0.085 0.081,0.128 z" style="fill:#000000;fill-opacity:1;fill-rule:nonzero;stroke:none" id="path24"></path></g><g id="g26" transform="translate(139.071,35.1353)"><path d="m 0,0 c -0.004,-0.703 -0.012,-1.407 -0.013,-2.11 -0.001,-4.263 0,-8.525 0,-12.787 v -0.461 h -3.53 v 0.425 c 0,4.833 0,9.666 0,14.499 0,0.509 -10e-4,0.509 -0.524,0.509 -0.995,0 -1.99,0 -3.012,0 v 3.547 h 3.528 v 9.472 h 3.533 V 3.628 h 1.13 c 1.421,0 2.841,-0.002 4.262,10e-4 0.143,10e-4 0.287,0.025 0.43,0.038 V 0.081 C 5.777,0.075 5.75,0.07 5.723,0.064 H 0.068 C 0.045,0.043 0.023,0.021 0,0" style="fill:#000000;fill-opacity:1;fill-rule:nonzero;stroke:none" id="path28"></path></g><g id="g30" transform="translate(144.7941,35.1992)"><path d="m 0,0 c 0.027,0.006 0.054,0.011 0.081,0.017 v -0.08 C 0.054,-0.042 0.027,-0.021 0,0" style="fill:#e0e0df;fill-opacity:1;fill-rule:nonzero;stroke:none" id="path32"></path></g><g id="g34" transform="translate(42.3774,23.2856)"><path d="m 0,0 c -3.337,0.115 -5.594,2.677 -5.785,5.556 -0.246,3.72 2.875,6.502 5.96,6.295 C 3.401,12.001 5.926,9.119 6.088,6.407 6.318,2.499 3.226,-0.112 0,0 m 9.668,24.528 v 0.43 H 6.107 V 13.48 c -0.162,0.073 -0.255,0.095 -0.325,0.146 -1.087,0.813 -2.301,1.339 -3.627,1.623 -1.24,0.264 -2.509,0.319 -3.73,0.076 -1.874,-0.366 -3.576,-1.147 -4.931,-2.578 -2.036,-2.158 -3.066,-4.66 -2.805,-7.663 0.115,-1.345 0.51,-2.582 1.164,-3.755 0.746,-1.345 1.756,-2.464 3.028,-3.299 1.718,-1.128 3.608,-1.689 5.699,-1.571 1.355,0.076 2.623,0.385 3.819,1.013 3.41,1.785 5.192,4.654 5.246,8.45 0.09,6.203 0.023,12.406 0.023,18.606" style="fill:#f26623;fill-opacity:1;fill-rule:nonzero;stroke:none" id="path36"></path></g><g id="g38" transform="translate(86.6799,23.3335)"><path d="m 0,0 c -1.941,-0.185 -3.589,0.421 -4.921,1.82 -1.097,1.157 -1.677,2.576 -1.661,4.176 0.032,3.111 2.62,5.932 6.005,5.807 C 2.834,11.851 5.333,9.138 5.349,5.919 5.368,2.572 2.805,0.265 0,0 M 8.699,7.666 C 8.53,9.011 7.981,10.235 7.21,11.331 c -0.985,1.4 -2.26,2.483 -3.847,3.188 -1.626,0.72 -3.299,1.014 -5.071,0.797 -1.107,-0.134 -2.149,-0.427 -3.15,-0.928 -1.498,-0.749 -2.712,-1.804 -3.649,-3.187 -0.976,-1.441 -1.54,-3.025 -1.581,-4.766 -0.039,-1.59 -0.003,-3.187 -0.003,-4.781 0,-3.968 0.003,-7.94 0,-11.908 -0.004,-0.249 0.022,-0.43 0.274,-0.59 0.637,-0.408 1.246,-0.867 1.871,-1.294 0.42,-0.29 0.851,-0.561 1.275,-0.841 0.047,0.003 0.092,0.003 0.14,0.006 v 11.344 c 0.555,-0.328 1.074,-0.65 1.61,-0.943 0.994,-0.545 2.075,-0.902 3.19,-0.979 0.972,-0.067 1.97,0.016 2.942,0.153 1.744,0.249 3.232,1.087 4.533,2.251 C 6.55,-0.43 7.197,0.418 7.726,1.364 8.38,2.528 8.759,3.771 8.848,5.081 8.906,5.935 8.807,6.808 8.699,7.666" style="fill:#000000;fill-opacity:1;fill-rule:nonzero;stroke:none" id="path40"></path></g><g id="g42" transform="translate(18.8412,34.8338)"><path d="M 0,0 C 3.079,1.081 6.652,-0.692 7.545,-3.79 7.513,-3.806 7.481,-3.831 7.449,-3.831 3.761,-3.828 0.073,-3.828 -3.615,-3.825 -3.643,-3.803 -3.672,-3.784 -3.697,-3.761 -3.095,-1.887 -1.836,-0.644 0,0 M 11.249,-7.357 C 12.233,-1.052 7.844,3.423 2.818,3.876 -2.069,4.319 -7.003,1.058 -7.573,-4.915 c -0.418,-4.367 2.556,-9.343 8.367,-10.136 2.413,-0.329 4.676,0.312 6.674,1.747 1.272,0.911 2.27,2.059 2.98,3.531 -1.443,0 -2.808,0.007 -4.172,-0.009 -0.124,0 -0.258,-0.109 -0.366,-0.198 -1.384,-1.125 -2.923,-1.753 -4.74,-1.511 -1.859,0.246 -3.286,1.18 -4.291,2.748 -0.255,0.398 -0.436,0.841 -0.653,1.265 0.045,0.042 0.086,0.083 0.128,0.121 z" style="fill:#f26723;fill-opacity:1;fill-rule:nonzero;stroke:none" id="path44"></path></g><g id="g46" transform="translate(107.4335,23.343)"><path d="m 0,0 c -2.76,0.14 -5.607,2.642 -5.508,6.005 -0.159,3 2.639,6.075 6.254,5.881 C 3.653,11.727 6.486,9.307 6.359,5.782 6.254,2.795 3.85,-0.191 0,0 m 7.156,12.613 c -1.725,1.711 -3.857,2.665 -6.292,2.757 -5.836,0.217 -9.802,-4.329 -9.958,-9.113 -0.182,-5.553 4.348,-9.945 9.48,-9.856 2.607,0.032 4.848,0.925 6.722,2.777 1.877,1.855 2.795,4.137 2.811,6.709 0.013,2.576 -0.914,4.89 -2.763,6.726" style="fill:#000000;fill-opacity:1;fill-rule:nonzero;stroke:none" id="path48"></path></g><g id="g50" transform="translate(54.8368,38.7407)"><path d="m 0,0 h 3.521 c 0,-0.158 0,-0.288 0,-0.418 -0.006,-3.146 -0.044,-6.293 -10e-4,-9.438 0.017,-1.186 0.492,-2.269 1.205,-3.228 0.504,-0.676 1.125,-1.23 1.871,-1.617 0.993,-0.516 2.057,-0.904 3.18,-0.747 0.66,0.092 1.322,0.273 1.977,0.547 1.495,0.628 2.525,1.652 3.164,3.08 0.258,0.576 0.423,1.241 0.436,1.87 0.066,3.207 0.068,6.416 0.094,9.624 0.001,0.103 0.014,0.207 0.023,0.33 h 3.51 V -0.45 c 0,-3.001 0.067,-6.003 -0.017,-9.001 -0.106,-3.794 -1.793,-6.702 -5.193,-8.51 -1.449,-0.771 -3.007,-1.081 -4.66,-1.034 -1.965,0.056 -3.736,0.68 -5.278,1.829 -1.949,1.451 -3.238,3.387 -3.676,5.819 -0.097,0.537 -0.159,1.088 -0.162,1.632 -0.015,3.147 -0.007,6.294 -0.007,9.44 0,0.079 0.007,0.158 0.013,0.275" style="fill:#f26623;fill-opacity:1;fill-rule:nonzero;stroke:none" id="path52"></path></g><g id="g54" transform="translate(123.6775,19.7662)"><path d="m 0,0 h -3.529 v 0.361 c 0,3.027 0.03,6.054 -0.013,9.08 -0.021,1.542 0.307,2.988 1.01,4.332 0.379,0.723 0.902,1.379 1.415,2.021 0.912,1.143 2.129,1.912 3.448,2.474 0.743,0.317 1.577,0.432 2.377,0.601 0.394,0.083 0.805,0.083 1.241,0.123 V 15.535 C 5.221,15.35 4.463,15.215 3.747,14.962 2.467,14.509 1.509,13.628 0.822,12.47 0.262,11.526 0.056,10.494 0.065,9.389 0.09,6.283 0.067,3.177 0.063,0.071 0.042,0.048 0.021,0.024 0,0" style="fill:#000000;fill-opacity:1;fill-rule:nonzero;stroke:none" id="path56"></path></g><g id="g58" transform="translate(80.0089,10.3532)"><path d="M 0,0 C 0.046,0.003 0.092,0.005 0.139,0.008 0.129,-0.018 0.12,-0.045 0.111,-0.071 0.074,-0.047 0.037,-0.024 0,0" style="fill:#424242;fill-opacity:1;fill-rule:nonzero;stroke:none" id="path60"></path></g><g id="g62" transform="translate(139.071,35.1353)"><path d="M 0,0 C 0.023,0.021 0.045,0.043 0.068,0.064 0.045,0.043 0.023,0.021 0,0" style="fill:#e0e0df;fill-opacity:1;fill-rule:nonzero;stroke:none" id="path64"></path></g><g id="g66" transform="translate(123.6775,19.7662)"><path d="M 0,0 C 0.021,0.024 0.042,0.048 0.063,0.071 0.042,0.048 0.021,0.024 0,0" style="fill:#202020;fill-opacity:1;fill-rule:nonzero;stroke:none" id="path68"></path></g><g id="g70" transform="translate(15.1428,31.0723)"><path d="M 0,0 C 0.027,-0.021 0.055,-0.042 0.082,-0.063 Z" style="fill:#feece2;fill-opacity:1;fill-rule:nonzero;stroke:none" id="path72"></path></g></g></g></g></svg> 